<svg id="Capa_1" enable-background="new 0 0 512 512" height="512" viewBox="0 0 512 512" width="512" xmlns="http://www.w3.org/2000/svg"><path style = "fill : green;" d="m453.39 182.376c.26-2.634.398-5.303.398-8.005 0-44.503-36.077-80.58-80.58-80.58-7.657 0-15.055 1.091-22.072 3.086-14.02-38.988-51.32-66.871-95.137-66.871s-81.116 27.883-95.137 66.871c-7.017-1.995-14.415-3.086-22.072-3.086-44.503 0-80.58 36.077-80.58 80.58 0 2.702.138 5.371.398 8.005-33.682 8.529-58.608 39.036-58.608 75.371 0 42.941 34.81 77.752 77.752 77.752h49.227v-131.789h258.043v131.789h49.227c42.941 0 77.751-34.81 77.751-77.752 0-36.335-24.926-66.842-58.61-75.371z"/><path style = "fill : green;" d="m355.021 233.71h-198.042v248.284h198.043v-248.284zm-168.006 30.048h137.971v30h-137.971zm137.97 150.096h-137.97v-30h137.971v30zm-137.97-60.048v-30h137.971v30z"/>


</svg>