<svg height="511pt" viewBox="0 0 511.99982 511" width="511pt" xmlns="http://www.w3.org/2000/svg"><path style = "fill: green;" d="m332 151.5h-152v29h-15v30h15v31h-15v30h15v31h-15v30h15v29h152v-29h15v-30h-15v-31h15v-30h-15v-31h15v-30h-15zm0 0"/><path style = "fill: green;" d="m503.488281 313.90625c-5.007812-19.0625-12.109375-38.34375-21.082031-57.53125 27.804688-59.554688 36.785156-118.308594 23.238281-165.039062-7.742187 6.554687-17.160156 11.179687-27.515625 13.144531 7.175782 29.292969 4.203125 65.457031-8.960937 104.746093-1.453125 4.34375-3.039063 8.703126-4.726563 13.066407-20.085937-34.160157-45.921875-67.394531-76.378906-97.855469-30.457031-30.457031-63.695312-56.292969-97.855469-76.378906 4.363281-1.6875 8.722657-3.273438 13.066407-4.726563 39.289062-13.167969 75.453124-16.136719 104.746093-8.960937 1.964844-10.355469 6.589844-19.769532 13.144531-27.511719-46.730468-13.550781-105.484374-4.570313-165.039062 23.234375-19.183594-8.972656-38.46875-16.074219-57.53125-21.085938-67.605469-17.761718-124.863281-7.515624-161.230469 28.851563-36.371093 36.371094-46.617187 93.628906-28.851562 161.230469 5.007812 19.066406 12.109375 38.347656 21.082031 57.535156-27.804688 59.550781-36.785156 118.308594-23.238281 165.039062 7.742187-6.554687 17.160156-11.179687 27.511719-13.144531-7.171876-29.292969-4.203126-65.453125 8.960937-104.746093 1.457031-4.34375 3.042969-8.703126 4.730469-13.066407 20.085937 34.160157 45.921875 67.398438 76.378906 97.855469s63.691406 56.292969 97.855469 76.378906c-4.363281 1.6875-8.722657 3.273438-13.066407 4.726563-39.292968 13.164062-75.453124 16.136719-104.75 8.960937-1.960937 10.355469-6.585937 19.773438-13.144531 27.515625 14.421875 4.179688 29.976563 6.230469 46.355469 6.230469 36.707031 0 77.511719-10.234375 118.695312-29.464844 19.179688 8.96875 38.460938 16.070313 57.523438 21.078125 21.667969 5.695313 42.277344 8.511719 61.472656 8.511719 40.691406 0 75.046875-12.652344 99.757813-37.363281 36.371093-36.367188 46.617187-93.628907 28.851562-161.230469zm-465.972656-122.4375c-14.941406-56.863281-7.464844-103.882812 21.054687-132.398438 18.914063-18.917968 45.964844-28.574218 78.636719-28.574218 16.582031 0 34.617188 2.492187 53.761719 7.519531 10.265625 2.699219 20.609375 6.074219 30.980469 10.070313-33.792969 19.824218-67.152344 45.492187-98.011719 76.351562s-56.53125 64.21875-76.351562 98.011719c-3.992188-10.371094-7.371094-20.714844-10.070313-30.980469zm107.628906 175.886719c-34.347656-34.351563-62.347656-72.277344-82.183593-110.769531 19.976562-38.703126 48.164062-76.921876 82.183593-110.941407s72.238281-62.207031 110.945313-82.183593c38.488281 19.835937 76.417968 47.835937 110.765625 82.183593 34.347656 34.347657 62.347656 72.273438 82.183593 110.765625-19.976562 38.707032-48.167968 76.925782-82.183593 110.945313-34.019531 34.015625-72.242188 62.207031-110.945313 82.183593-38.488281-19.835937-76.417968-47.835937-110.765625-82.183593zm308.285157 86.574219c-28.515626 28.515624-75.535157 35.996093-132.398438 21.054687-10.261719-2.699219-20.605469-6.074219-30.96875-10.066406 33.789062-19.824219 67.144531-45.5 98-76.355469 30.859375-30.863281 56.53125-64.21875 76.351562-98.011719 3.992188 10.367188 7.371094 20.714844 10.066407 30.976563 14.945312 56.867187 7.46875 103.886718-21.050781 132.402344zm0 0"/><path style = "fill: green;" d="m497 45.5c0 16.566406-13.429688 30-30 30s-30-13.433594-30-30c0-16.570312 13.429688-30 30-30s30 13.429688 30 30zm0 0"/><path style = "fill: green;" d="m75 467.5c0 16.566406-13.429688 30-30 30s-30-13.433594-30-30c0-16.570312 13.429688-30 30-30s30 13.429688 30 30zm0 0"/></svg>