<svg height="512" viewBox="0 0 64 64" width="512" xmlns="http://www.w3.org/2000/svg"><g id="Design_code" data-name="Design code"><path style = "fill: green;" d="m28 26h8v6h-8z"/><path style = "fill: green;" d="m14 26h8v6h-8z"/><path style = "fill: green;" d="m6 52h52v-29.081a12.013 12.013 0 0 1 -2 1.457v24.624a1 1 0 0 1 -1 1h-46a1 1 0 0 1 -1-1v-32a1 1 0 0 1 1-1h29.181a11.986 11.986 0 0 1 -.181-2h-29a3 3 0 0 0 -3 3z"/><path style = "fill: green;" d="m50 24a10 10 0 1 0 -10-10 10.011 10.011 0 0 0 10 10zm3.293-12.293a1 1 0 0 1 1.414-1.414l3 3a1 1 0 0 1 0 1.414l-3 3a1 1 0 0 1 -1.414-1.414l2.293-2.293zm-3.273-2.907a1 1 0 1 1 1.96.392l-2 10a1 1 0 0 1 -.98.808.948.948 0 0 1 -.2-.02 1 1 0 0 1 -.78-1.18zm-4.727 1.489a1 1 0 0 1 1.414 1.414l-2.293 2.297 2.293 2.293a1 1 0 1 1 -1.414 1.414l-3-3a1 1 0 0 1 0-1.414z"/><path style = "fill: green;" d="m42 26h8v6h-8z"/><path style = "fill: green;" d="m60 54h-21v1a3 3 0 0 1 -3 3h-8a3 3 0 0 1 -3-3v-1h-21v3a3 3 0 0 0 3 3h50a3 3 0 0 0 3-3z"/><path style = "fill: green;" d="m28 56h8a1 1 0 0 0 1-1v-1h-10v1a1 1 0 0 0 1 1z"/><path style = "fill: green;" d="m10 18v30h44v-22.7a11.815 11.815 0 0 1 -2 .519v7.181a1 1 0 0 1 -1 1h-10a1 1 0 0 1 -1-1v-8a1 1 0 0 1 1-1h2.381a12.047 12.047 0 0 1 -4.681-6zm10 2h2v2h-2zm-4 0h2v2h-2zm-4 0h2v2h-2zm10 26h-8v-2h8zm0-4h-8v-2h8zm0-4h-8v-2h8zm2-5a1 1 0 0 1 -1 1h-10a1 1 0 0 1 -1-1v-8a1 1 0 0 1 1-1h10a1 1 0 0 1 1 1zm6 13h-2v-2h2zm0-4h-2v-2h2zm0-4h-2v-2h2zm6 8h-4v-2h4zm0-4h-4v-2h4zm0-4h-4v-2h4zm2-5a1 1 0 0 1 -1 1h-10a1 1 0 0 1 -1-1v-8a1 1 0 0 1 1-1h10a1 1 0 0 1 1 1zm0-11h-14v-2h14zm4 14h8v2h-8zm0 4h8v2h-8zm0 4h8v2h-8z"/></g></svg>